<svg width="16" height="17" viewBox="0 0 16 17" fill="none" xmlns="http://www.w3.org/2000/svg">
<path d="M12.4 1.90137C13.1333 1.90137 13.7333 2.50137 13.7333 3.2347V4.70137C13.7333 5.2347 13.4 5.90137 13.0667 6.2347L10.2 8.76803C9.8 9.10137 9.53333 9.76803 9.53333 10.3014V13.168C9.53333 13.568 9.26666 14.1014 8.93333 14.3014L8 14.9014C7.13333 15.4347 5.93333 14.8347 5.93333 13.768V10.2347C5.93333 9.76803 5.66666 9.16803 5.4 8.8347L2.86666 6.16803C2.53333 5.8347 2.26666 5.2347 2.26666 4.8347V3.30137C2.26666 2.50137 2.86666 1.90137 3.6 1.90137H9.6M7.28666 1.90137L4 7.16803" stroke="white" stroke-width="1.5" stroke-miterlimit="10" stroke-linecap="round" stroke-linejoin="round"/>
</svg>
