<svg width="342" height="40" viewBox="0 0 342 40" fill="none" xmlns="http://www.w3.org/2000/svg">
<rect width="342" height="40" rx="20" fill="#F4F4F4"/>
<g clip-path="url(#clip0_0_395)">
<path d="M26.6667 12.3334C30.1667 12.3334 33 15.1667 33 18.6667C33 22.1667 30.1667 25 26.6667 25C23.1667 25 20.3333 22.1667 20.3333 18.6667C20.3333 16.2 21.74 14.0667 23.8 13.02M33.6667 25.6667L32.3333 24.3334" stroke="#272727" stroke-width="1.5" stroke-linecap="round" stroke-linejoin="round"/>
</g>
<path d="M53.504 17.424L52.448 17.796C52.392 17.428 52.212 17.096 51.908 16.8C51.604 16.496 51.184 16.344 50.648 16.344C50.176 16.344 49.784 16.48 49.472 16.752C49.16 17.024 49.004 17.36 49.004 17.76C49.004 18.072 49.096 18.336 49.28 18.552C49.472 18.768 49.744 18.916 50.096 18.996L51.368 19.272C52.072 19.424 52.616 19.712 53 20.136C53.384 20.552 53.576 21.06 53.576 21.66C53.576 22.348 53.304 22.94 52.76 23.436C52.216 23.932 51.508 24.18 50.636 24.18C49.684 24.18 48.936 23.932 48.392 23.436C47.856 22.932 47.544 22.336 47.456 21.648L48.584 21.288C48.632 21.8 48.832 22.232 49.184 22.584C49.536 22.936 50.016 23.112 50.624 23.112C51.184 23.112 51.616 22.984 51.92 22.728C52.224 22.472 52.376 22.148 52.376 21.756C52.376 21.436 52.268 21.16 52.052 20.928C51.836 20.688 51.52 20.524 51.104 20.436L49.892 20.172C49.26 20.036 48.756 19.768 48.38 19.368C48.004 18.968 47.816 18.46 47.816 17.844C47.816 17.172 48.088 16.584 48.632 16.08C49.184 15.568 49.848 15.312 50.624 15.312C51.496 15.312 52.164 15.524 52.628 15.948C53.092 16.372 53.384 16.864 53.504 17.424ZM55.6881 20.52H58.8441C58.8281 20.088 58.6841 19.736 58.4121 19.464C58.1401 19.184 57.7561 19.044 57.2601 19.044C56.8121 19.044 56.4441 19.192 56.1561 19.488C55.8681 19.776 55.7121 20.12 55.6881 20.52ZM59.0121 22.02L59.9841 22.356C59.8161 22.892 59.5041 23.332 59.0481 23.676C58.5921 24.012 58.0401 24.18 57.3921 24.18C56.5841 24.18 55.8961 23.904 55.3281 23.352C54.7681 22.792 54.4881 22.04 54.4881 21.096C54.4881 20.216 54.7601 19.488 55.3041 18.912C55.8481 18.336 56.4961 18.048 57.2481 18.048C58.1201 18.048 58.8001 18.324 59.2881 18.876C59.7761 19.42 60.0201 20.152 60.0201 21.072C60.0201 21.216 60.0121 21.336 59.9961 21.432H55.6521C55.6601 21.944 55.8281 22.364 56.1561 22.692C56.4921 23.02 56.9041 23.184 57.3921 23.184C58.2161 23.184 58.7561 22.796 59.0121 22.02ZM61.1 22.452C61.1 21.956 61.26 21.56 61.58 21.264C61.9 20.96 62.324 20.772 62.852 20.7L64.412 20.472C64.708 20.432 64.856 20.288 64.856 20.04C64.856 19.736 64.752 19.488 64.544 19.296C64.336 19.104 64.024 19.008 63.608 19.008C63.224 19.008 62.92 19.116 62.696 19.332C62.472 19.54 62.34 19.82 62.3 20.172L61.22 19.92C61.276 19.368 61.528 18.92 61.976 18.576C62.424 18.224 62.96 18.048 63.584 18.048C64.4 18.048 65.004 18.248 65.396 18.648C65.788 19.04 65.984 19.544 65.984 20.16V23.052C65.984 23.396 66.008 23.712 66.056 24H64.952C64.912 23.76 64.892 23.5 64.892 23.22C64.732 23.476 64.496 23.7 64.184 23.892C63.88 24.084 63.496 24.18 63.032 24.18C62.464 24.18 62 24.012 61.64 23.676C61.28 23.332 61.1 22.924 61.1 22.452ZM63.188 23.232C63.692 23.232 64.096 23.096 64.4 22.824C64.704 22.552 64.856 22.12 64.856 21.528V21.264L63.092 21.528C62.836 21.568 62.632 21.66 62.48 21.804C62.328 21.948 62.252 22.144 62.252 22.392C62.252 22.616 62.336 22.812 62.504 22.98C62.68 23.148 62.908 23.232 63.188 23.232ZM70.9453 18.168V19.368C70.7773 19.344 70.6133 19.332 70.4533 19.332C69.3973 19.332 68.8693 19.924 68.8693 21.108V24H67.7413V18.228H68.8453V19.236C69.1973 18.5 69.7733 18.132 70.5733 18.132C70.7013 18.132 70.8253 18.144 70.9453 18.168ZM74.5129 19.092C74.0249 19.092 73.6089 19.268 73.2649 19.62C72.9289 19.972 72.7609 20.468 72.7609 21.108C72.7609 21.74 72.9289 22.236 73.2649 22.596C73.6089 22.956 74.0289 23.136 74.5249 23.136C75.0049 23.136 75.3689 23.016 75.6169 22.776C75.8729 22.536 76.0449 22.26 76.1329 21.948L77.1289 22.38C76.9689 22.86 76.6649 23.28 76.2169 23.64C75.7769 24 75.2129 24.18 74.5249 24.18C73.6849 24.18 72.9889 23.888 72.4369 23.304C71.8849 22.72 71.6089 21.988 71.6089 21.108C71.6089 20.212 71.8849 19.48 72.4369 18.912C72.9889 18.336 73.6809 18.048 74.5129 18.048C75.2169 18.048 75.7849 18.228 76.2169 18.588C76.6569 18.948 76.9449 19.38 77.0809 19.884L76.0609 20.316C75.9729 19.98 75.8049 19.692 75.5569 19.452C75.3089 19.212 74.9609 19.092 74.5129 19.092ZM79.5802 20.604V24H78.4522V15.312H79.5802V18.9C79.9642 18.34 80.5482 18.06 81.3322 18.06C81.9962 18.06 82.5042 18.272 82.8562 18.696C83.2162 19.12 83.3962 19.668 83.3962 20.34V24H82.2682V20.532C82.2682 19.564 81.8202 19.08 80.9242 19.08C80.5082 19.08 80.1842 19.224 79.9522 19.512C79.7202 19.792 79.5962 20.156 79.5802 20.604Z" fill="#272727"/>
<defs>
<clipPath id="clip0_0_395">
<rect width="16" height="16" fill="white" transform="translate(19 11)"/>
</clipPath>
</defs>
</svg>
