<svg width="40" height="40" viewBox="0 0 40 40" fill="none" xmlns="http://www.w3.org/2000/svg">
<path d="M20 20C22.7614 20 25 17.7614 25 15C25 12.2386 22.7614 10 20 10C17.2386 10 15 12.2386 15 15C15 17.7614 17.2386 20 20 20Z" stroke="#8E6CEF" stroke-width="3"/>
<path d="M29.9485 33.3333C29.6833 28.5142 28.2078 25 19.9998 25C11.792 25 10.3165 28.5142 10.0513 33.3333" stroke="#8E6CEF" stroke-width="3" stroke-linecap="round"/>
<path d="M11.6667 5.56307C14.1181 4.14499 16.9643 3.33337 20 3.33337C29.2047 3.33337 36.6667 10.7953 36.6667 20C36.6667 29.2047 29.2047 36.6667 20 36.6667C10.7953 36.6667 3.33334 29.2047 3.33334 20C3.33334 16.9644 4.14495 14.1182 5.56304 11.6667" stroke="#8E6CEF" stroke-width="3" stroke-linecap="round"/>
</svg>
