<svg width="92" height="92" viewBox="0 0 92 92" fill="none" xmlns="http://www.w3.org/2000/svg">
<path d="M46 84C57.0457 84 66 78.8513 66 72.5C66 66.1487 57.0457 61 46 61C34.9543 61 26 66.1487 26 72.5C26 78.8513 34.9543 84 46 84Z" fill="#595959" stroke="#595959" stroke-width="5"/>
<path d="M46 46C52.3513 46 57.5 40.8513 57.5 34.5C57.5 28.1487 52.3513 23 46 23C39.6487 23 34.5 28.1487 34.5 34.5C34.5 40.8513 39.6487 46 46 46Z" fill="#595959" stroke="#595959" stroke-width="5"/>
<path d="M68.8816 76.6667C68.2717 65.5826 64.878 57.5 45.9996 57.5C27.1216 57.5 23.728 65.5826 23.1179 76.6667" stroke="#595959" stroke-width="5" stroke-linecap="round"/>
<circle cx="46" cy="46" r="38.5" stroke="#595959" stroke-width="5"/>
</svg>
